<?xml version="1.0" encoding="iso-8859-1"?>
<!-- Uploaded to: SVG Repo, www.svgrepo.com, Generator: SVG Repo Mixer Tools -->
<svg height="800px" width="800px" version="1.1" id="Layer_1" xmlns="http://www.w3.org/2000/svg" xmlns:xlink="http://www.w3.org/1999/xlink" 
	 viewBox="0 0 511.999 511.999" xml:space="preserve">
<path style="fill:#B27214;" d="M322.873,75.227c0,6.921-1.048,13.586-2.998,19.86v0.011c-1.772-0.156-3.555-0.223-5.361-0.223
	c-25.176,0-47.11,13.909-58.511,34.471c-11.401-20.562-33.335-34.471-58.511-34.471c-1.805,0-3.589,0.067-5.361,0.223v-0.011
	c-1.95-6.275-2.998-12.939-2.998-19.86c0-36.934,29.935-66.87,66.87-66.87S322.873,38.293,322.873,75.227z"/>
<path style="fill:#995C0D;" d="M225.911,75.227c0-11.758,3.031-22.803,8.359-32.398c8.509-15.346,22.886-26.982,40.097-31.9
	c-4.183-1.191-8.529-1.994-13.004-2.348c-1.772-0.156-3.555-0.223-5.361-0.223c-25.176,0-47.11,13.909-58.511,34.471
	c-5.327,9.596-8.359,20.64-8.359,32.398c0,19.515,8.359,37.079,21.688,49.305h36.778C234.27,112.307,225.911,94.742,225.911,75.227z
	"/>
<path style="fill:#F7B239;" d="M386.889,226.409v20.306c0,8.481-6.876,15.358-15.358,15.358h-12.259h-206.55h-12.259
	c-8.481,0-15.347-6.876-15.347-15.358v-20.306c0-8.481,6.865-15.358,15.347-15.358h11.847h117.022h90.363h11.836
	C380.013,211.051,386.889,217.928,386.889,226.409z"/>
<path style="fill:#E09B2D;" d="M185.299,246.715v-20.306c0-8.481,6.865-15.358,15.347-15.358H152.31h-11.847
	c-8.481,0-15.347,6.876-15.347,15.358v20.306c0,8.481,6.865,15.358,15.347,15.358h12.259h47.923
	C192.164,262.073,185.299,255.196,185.299,246.715z"/>
<path style="fill:#9AD14B;" d="M381.384,161.746c0,19.515-8.359,37.079-21.688,49.305h-90.363
	c-13.329-12.226-21.688-29.79-21.688-49.305c0-11.758,3.031-22.803,8.359-32.398c11.401-20.562,33.335-34.471,58.511-34.471
	c1.805,0,3.589,0.067,5.361,0.223C354.301,97.818,381.384,126.617,381.384,161.746z"/>
<path style="fill:#90BC42;" d="M284.422,161.746c0-11.758,3.031-22.803,8.359-32.398c8.509-15.346,22.886-26.982,40.097-31.9
	c-4.183-1.191-8.529-1.994-13.004-2.348c-1.772-0.156-3.555-0.223-5.361-0.223c-25.176,0-47.11,13.909-58.511,34.471
	c-5.327,9.596-8.359,20.64-8.359,32.398c0,19.515,8.359,37.079,21.688,49.305h36.778
	C292.781,198.825,284.422,181.261,284.422,161.746z"/>
<polygon style="fill:#F7B239;" points="359.272,262.073 355.26,283.248 347.001,326.859 164.993,326.859 156.735,283.248 
	152.722,262.073 "/>
<g>
	<polygon style="fill:#E09B2D;" points="359.272,262.073 355.26,283.248 156.735,283.248 152.722,262.073 	"/>
	<polygon style="fill:#E09B2D;" points="198.406,262.073 205.249,326.859 164.993,326.859 152.722,262.073 	"/>
</g>
<path style="fill:#F7B239;" d="M325.826,326.859l-7.356,26.748l-35.63,129.583c-3.332,12.081-14.31,20.451-26.837,20.451
	c-12.527,0-23.516-8.37-26.837-20.451l-35.642-129.583l-7.356-26.748H325.826z"/>
<g>
	<polygon style="fill:#E09B2D;" points="328.055,326.859 320.699,348.034 195.753,348.034 188.397,326.859 	"/>
	<path style="fill:#E09B2D;" d="M256.003,503.64c-12.527,0-23.516-8.37-26.837-20.451l-42.997-156.331h43.755l16.049,156.331
		C247.221,495.27,251.322,503.64,256.003,503.64z"/>
</g>
<path style="fill:#F95428;" d="M269.332,211.051H152.31c-13.329-12.226-21.688-29.79-21.688-49.305
	c0-35.129,27.082-63.928,61.509-66.647c1.772-0.156,3.555-0.223,5.361-0.223c25.176,0,47.11,13.909,58.511,34.471
	c-5.327,9.596-8.359,20.64-8.359,32.398C247.644,181.261,256.003,198.825,269.332,211.051z"/>
<path style="fill:#E54728;" d="M167.4,161.746c0-11.758,3.031-22.803,8.359-32.398c8.509-15.346,22.886-26.982,40.097-31.9
	c-4.183-1.191-8.529-1.994-13.004-2.348c-1.772-0.156-3.555-0.223-5.361-0.223c-25.176,0-47.11,13.909-58.511,34.471
	c-5.327,9.596-8.359,20.64-8.359,32.398c0,19.515,8.359,37.079,21.688,49.305h36.778C175.759,198.825,167.4,181.261,167.4,161.746z"
	/>
<path style="fill:#333333;" d="M377.124,203.389c8.127-12.245,12.616-26.733,12.616-41.642c0-36.134-25.611-66.389-59.631-73.592
	c0.737-4.25,1.12-8.569,1.12-12.926C331.229,33.747,297.482,0,256.001,0s-75.229,33.747-75.229,75.229
	c0,4.357,0.383,8.676,1.12,12.926c-34.02,7.203-59.631,37.458-59.631,73.592c0,14.908,4.489,29.396,12.615,41.641
	c-10.382,2.523-18.123,11.873-18.123,23.02v20.312c0,13.075,10.638,23.713,23.713,23.713h5.335l10.979,57.976
	c0.748,3.946,4.196,6.803,8.213,6.803h14.805l41.307,150.193c4.306,15.658,18.656,26.594,34.896,26.594s30.589-10.937,34.895-26.594
	l41.307-150.193h14.805c4.017,0,7.465-2.856,8.213-6.803l10.978-57.976h5.335c13.075,0,23.713-10.638,23.713-23.713v-20.312
	C395.246,215.262,387.506,205.912,377.124,203.389z M373.023,161.747c0,15.303-6.057,30.051-16.715,40.948h-83.593
	c-10.657-10.896-16.714-25.645-16.714-40.948c0-32.264,26.247-58.511,58.511-58.511
	C346.775,103.236,373.023,129.483,373.023,161.747z M256.001,16.717c32.264,0,58.511,26.248,58.511,58.511
	c0,3.824-0.371,7.61-1.097,11.318c-23.149,0.334-43.796,11.166-57.384,27.952c-13.918-17.228-34.914-27.633-57.447-27.961
	c-0.724-3.703-1.094-7.487-1.094-11.308C197.489,42.965,223.737,16.717,256.001,16.717z M197.489,103.236
	c19.822,0,38.211,10.047,48.972,26.48c-4.596,9.725-7.178,20.58-7.178,32.031c0,14.626,4.311,28.852,12.147,40.948h-95.738
	c-10.657-10.896-16.714-25.646-16.714-40.948C138.978,129.483,165.226,103.236,197.489,103.236z M274.775,480.974
	c-2.317,8.424-10.037,14.309-18.776,14.309l0,0c-8.738,0-16.459-5.885-18.776-14.309l-40.086-145.761h117.727L274.775,480.974z
	 M340.083,318.495H171.917l-9.101-48.062h186.366L340.083,318.495z M378.528,246.721c0,3.857-3.138,6.996-6.996,6.996H140.466
	c-3.857,0-6.996-3.138-6.996-6.996v-20.312c0-3.857,3.138-6.996,6.996-6.996h231.065c3.857,0,6.996,3.138,6.996,6.996v20.312
	H378.528z"/>
</svg>