<?xml version="1.0" encoding="iso-8859-1"?>
<!-- Uploaded to: SVG Repo, www.svgrepo.com, Generator: SVG Repo Mixer Tools -->
<svg fill="#000000" height="800px" width="800px" version="1.1" id="Layer_1" xmlns="http://www.w3.org/2000/svg" xmlns:xlink="http://www.w3.org/1999/xlink" 
	 viewBox="0 0 511.999 511.999" xml:space="preserve">
<g>
	<g>
		<path d="M314.511,114.381c-4.616,0-8.359,3.742-8.359,8.359c0,4.616,3.741,8.359,8.359,8.359
			c16.899,0,30.649,13.748,30.649,30.649c0,4.616,3.741,8.359,8.359,8.359s8.359-3.742,8.359-8.359
			C361.877,135.629,340.629,114.381,314.511,114.381z"/>
	</g>
</g>
<g>
	<g>
		<path d="M233.222,132.078c-9.056-11.246-22.507-17.697-36.902-17.697c-4.616,0-8.359,3.742-8.359,8.359
			c0,4.616,3.744,8.359,8.36,8.359c9.309,0,18.015,4.179,23.881,11.465c1.652,2.051,4.072,3.116,6.515,3.116
			c1.84,0,3.692-0.605,5.237-1.849C235.551,140.935,236.118,135.673,233.222,132.078z"/>
	</g>
</g>
<g>
	<g>
		<path d="M253.975,27.078c-4.616,0-8.359,3.742-8.359,8.359c0,4.616,3.741,8.359,8.359,8.359c16.9,0,30.649,13.748,30.649,30.649
			c0,4.616,3.741,8.359,8.359,8.359s8.359-3.742,8.359-8.359C301.342,48.326,280.094,27.078,253.975,27.078z"/>
	</g>
</g>
<g>
	<g>
		<path d="M377.124,203.389c8.127-12.245,12.616-26.733,12.616-41.642c0-36.134-25.611-66.39-59.631-73.593
			c0.737-4.25,1.12-8.569,1.12-12.926C331.229,33.747,297.482,0,256.001,0c-41.482,0-75.229,33.747-75.229,75.229
			c0,4.357,0.383,8.676,1.12,12.926c-34.02,7.203-59.631,37.458-59.631,73.593c0,14.907,4.489,29.396,12.615,41.641
			c-10.382,2.523-18.123,11.873-18.123,23.02v20.312c0,13.075,10.638,23.713,23.713,23.713h5.335l10.979,57.976
			c0.748,3.946,4.196,6.803,8.213,6.803h14.805l41.307,150.193c4.306,15.658,18.656,26.594,34.896,26.594
			c16.24,0,30.589-10.937,34.895-26.594l41.307-150.193h14.805c4.017,0,7.465-2.856,8.213-6.803l10.978-57.976h5.335
			c13.075,0,23.713-10.638,23.713-23.713v-20.312C395.246,215.262,387.506,205.912,377.124,203.389z M373.023,161.747
			c0,15.303-6.057,30.051-16.715,40.948h-83.593c-10.657-10.896-16.714-25.645-16.714-40.948c0-32.264,26.248-58.511,58.511-58.511
			C346.775,103.236,373.023,129.483,373.023,161.747z M256.001,16.717c32.264,0,58.511,26.247,58.511,58.511
			c0,3.824-0.371,7.61-1.097,11.318c-23.149,0.334-43.796,11.166-57.384,27.952c-13.918-17.228-34.914-27.633-57.447-27.961
			c-0.724-3.703-1.094-7.487-1.094-11.308C197.489,42.965,223.737,16.717,256.001,16.717z M197.489,103.236
			c19.822,0,38.211,10.047,48.972,26.48c-4.596,9.725-7.178,20.58-7.178,32.031c0,14.626,4.311,28.852,12.147,40.948h-95.737
			c-10.657-10.896-16.714-25.646-16.714-40.948C138.978,129.483,165.226,103.236,197.489,103.236z M274.775,480.974
			c-2.317,8.424-10.037,14.309-18.776,14.309c-8.738,0-16.459-5.885-18.776-14.309l-40.086-145.761h117.727L274.775,480.974z
			 M340.083,318.495H171.917l-9.101-48.062h186.366L340.083,318.495z M371.533,253.716H140.466c-3.857,0-6.996-3.138-6.996-6.996
			v-20.312c0-3.857,3.138-6.996,6.996-6.996h231.065c3.857,0,6.996,3.138,6.996,6.996v20.312h0.001
			C378.528,250.578,375.39,253.716,371.533,253.716z"/>
	</g>
</g>
</svg>