<?xml version="1.0" encoding="iso-8859-1"?>
<!-- Uploaded to: SVG Repo, www.svgrepo.com, Generator: SVG Repo Mixer Tools -->
<svg fill="#000000" height="800px" width="800px" version="1.1" id="Layer_1" xmlns="http://www.w3.org/2000/svg" xmlns:xlink="http://www.w3.org/1999/xlink" 
	 viewBox="0 0 511.998 511.998" xml:space="preserve">
<g>
	<g>
		<path d="M371.549,179.77c-4.883,0-8.839,3.958-8.839,8.839c0,5.864-4.771,10.635-10.635,10.635h-0.345H159.923
			c-5.864,0-10.635-4.771-10.635-10.635V185.3c0-5.864,4.772-10.635,10.635-10.635h192.152c0.393,0,0.776-0.034,1.154-0.084
			c0.473,0.077,0.945,0.121,1.412,0.121c3.768,0,7.26-2.429,8.437-6.216c4.016-12.912,6.054-26.378,6.054-40.022
			c0-58.577-37.415-110.047-93.102-128.076c-2.898-0.938-5.904-0.099-8.405,1.638c-3.082,2.14-2.699,7.444-2.785,10.049
			c-0.814,24.441-16.762,46.096-40.304,52.757c-0.073,0.021-0.146,0.042-0.219,0.065c-28.839,8.97-52.608,29.841-65.215,57.265
			c-2.039,4.436-0.097,9.684,4.339,11.723c4.438,2.04,9.685,0.097,11.723-4.339c10.501-22.842,30.288-40.236,54.301-47.736
			c28.001-7.973,48.423-32.006,52.364-60.322c42.095,18.539,69.626,60.144,69.626,106.976c0,9.677-1.196,19.239-3.523,28.523
			H159.923c-15.612,0-28.313,12.701-28.313,28.313v3.309c0,11.954,7.451,22.194,17.949,26.34v41.42
			c0,23.45,19.078,42.528,42.528,42.528h116.621l-53.644,174.225l-41.663-135.31c-1.437-4.666-6.383-7.281-11.049-5.847
			c-4.666,1.437-7.283,6.384-5.847,11.049l50.111,162.745c1.142,3.708,4.568,6.238,8.448,6.238c3.88,0,7.306-2.53,8.448-6.238
			l64.029-207.952c10.398-2.381,19.642-8.602,25.76-17.654c4.754-7.038,7.268-15.263,7.268-23.784v-40.751
			c11.473-3.616,19.818-14.356,19.818-27.009C380.388,183.728,376.431,179.77,371.549,179.77z M342.891,256.37
			c0,4.982-1.466,9.783-4.239,13.888c-4.639,6.865-12.344,10.963-20.611,10.963H192.088c-13.703,0-24.85-11.148-24.85-24.85v-39.448
			h175.653V256.37z"/>
	</g>
</g>
</svg>