<?xml version="1.0" encoding="iso-8859-1"?>
<!-- Uploaded to: SVG Repo, www.svgrepo.com, Generator: SVG Repo Mixer Tools -->
<svg version="1.1" id="Layer_1" xmlns="http://www.w3.org/2000/svg" xmlns:xlink="http://www.w3.org/1999/xlink" 
	 viewBox="0 0 511.999 511.999" xml:space="preserve">
<path style="fill:#EDA156;" d="M352.066,165.893H159.931c-10.754,0-19.472,8.679-19.472,19.434v3.309
	c0,10.754,8.718,19.472,19.472,19.472h-1.525v48.283c0,18.605,15.082,33.687,33.687,33.687h-2.639l65.609,213.083l65.609-213.083
	h-2.639c18.605,0,33.687-15.082,33.687-33.687v-48.283h0.344c10.754,0,19.472-8.718,19.472-19.472v-3.309
	C371.54,174.572,362.822,165.893,352.066,165.893z"/>
<path style="fill:#F9DE8F;" d="M360.286,128.495c0-55.92-36.502-103.316-86.979-119.658l0.375,2.687
	c0,28.021-17.938,51.842-42.953,60.635c-41.609,10.855-72.322,48.724-72.322,93.733h196.226
	C358.306,154.08,360.286,141.517,360.286,128.495z"/>
<path style="fill:#F7CF6D;" d="M273.306,8.837l0.375,2.687c0,4.813-0.541,9.497-1.544,14.007
	c32.395,22.747,53.582,60.375,53.582,102.964c0,13.019-1.979,25.586-5.652,37.398h34.566c3.674-11.813,5.653-24.376,5.653-37.398
	C360.286,72.575,323.783,25.179,273.306,8.837z"/>
<g>
	<rect x="158.404" y="208.11" style="fill:#DD8E40;" width="193.31" height="20.198"/>
	<path style="fill:#DD8E40;" d="M320.674,290.077h-26.318H189.455l8.497,27.593h23.85c35.097,0,61.597,31.832,55.232,66.348
		l-21.97,119.143L320.674,290.077z"/>
</g>
<g>
	<circle style="fill:#F7CF6D;" cx="184.082" cy="142.648" r="6.678"/>
	<circle style="fill:#F7CF6D;" cx="197.433" cy="120.293" r="6.678"/>
	<circle style="fill:#F7CF6D;" cx="211.256" cy="142.648" r="6.678"/>
</g>
<path d="M380.378,188.635c0-4.881-3.956-8.838-8.838-8.838c-4.882,0-8.838,3.957-8.838,8.838c0,5.864-4.77,10.634-10.634,10.634
	h-0.345H159.931c-5.864,0-10.634-4.77-10.634-10.634v-3.309c0-5.864,4.771-10.634,10.634-10.634h192.137
	c0.392,0,0.775-0.034,1.154-0.084c0.473,0.077,0.945,0.121,1.412,0.121c3.767,0,7.259-2.429,8.436-6.215
	c4.016-12.911,6.054-26.376,6.054-40.018c0-58.573-37.412-110.039-93.095-128.066c-2.898-0.938-6.071-0.318-8.405,1.638
	c-2.332,1.957-3.493,4.978-3.071,7.992l0.286,2.056c-0.263,24.451-16.761,46.092-40.301,52.753
	c-0.073,0.021-0.146,0.042-0.219,0.065c-28.836,8.969-52.604,29.839-65.21,57.26c-2.039,4.436-0.097,9.683,4.339,11.722
	c4.438,2.04,9.684,0.097,11.722-4.339c10.5-22.84,30.286-40.233,54.296-47.732c27.998-7.972,48.419-32.004,52.36-60.317
	c42.091,18.538,69.621,60.139,69.621,106.968c0,9.676-1.196,19.238-3.522,28.52H159.931c-15.611,0-28.311,12.7-28.311,28.311v3.309
	c0,11.953,7.45,22.192,17.948,26.338v41.417c0,23.448,19.076,42.525,42.525,42.525h116.612l-53.64,174.211l-41.66-135.3
	c-1.437-4.665-6.382-7.28-11.048-5.846c-4.665,1.436-7.283,6.384-5.846,11.048l50.107,162.732c1.142,3.707,4.568,6.237,8.447,6.237
	s7.305-2.53,8.447-6.237l64.024-207.936c10.397-2.38,19.641-8.601,25.758-17.653c4.754-7.038,7.267-15.262,7.267-23.782v-40.748
	C372.034,212.027,380.378,201.288,380.378,188.635z M342.884,256.39c0,4.981-1.466,9.782-4.239,13.887
	c-4.638,6.864-12.343,10.962-20.61,10.962H192.093c-13.702,0-24.848-11.147-24.848-24.848v-39.445h175.64L342.884,256.39
	L342.884,256.39z"/>
</svg>